<svg version="1.2" baseProfile="tiny-ps" xmlns="http://www.w3.org/2000/svg" viewBox="0 0 573 200" width="573" height="200">
	<title>exium-logo</title>
	<style>
		tspan { white-space:pre }
		.shp0 { fill: #2d2d2d } 
	</style>
	<path id="Shape 1" class="shp0" d="M15 14L555 14L555 181L15 181L15 14Z" />
	<path id="Exium " fill="#ffffff" aria-label="Exium"  d="M168.09 76.82L89.52 76.82L89.52 58.97L168.09 58.97L168.09 76.82ZM150.7 107.36L116.38 107.36L116.38 89.61L150.7 89.61L150.7 107.36ZM168.09 138L116.38 138L116.38 120.24L168.09 120.24L168.09 138ZM107.37 138L89.61 138L89.61 89.52L107.37 89.52L107.37 138ZM259.72 89.61L241.87 89.61L241.87 58.97L259.72 58.97L259.72 89.61ZM259.72 138L241.87 138L241.87 107.36L259.72 107.36L259.72 138ZM232.86 107.36L205.99 107.36L205.99 89.61L232.86 89.61L232.86 107.36ZM196.88 89.61L179.13 89.61L179.13 58.97L196.88 58.97L196.88 89.61ZM196.88 138L179.13 138L179.13 107.36L196.88 107.36L196.88 138Z" />
	<path id="Exium " fill="#92d9f4" aria-label="Exium"  d="M288.52 138L270.76 138L270.76 58.97L288.52 58.97L288.52 138ZM386.96 138L369.11 138L369.11 58.97L386.96 58.97L386.96 138ZM317.31 111.14L299.56 111.14L299.56 58.97L317.31 58.97L317.31 111.14ZM360.09 138L317.31 138L299.56 120.24L360.09 120.24L360.09 138ZM485.49 138L467.64 138L467.64 58.97L485.49 58.97L485.49 138ZM458.62 76.82L398 76.82L398 58.97L458.62 58.97L458.62 76.82ZM450.34 138L432.59 138L432.59 85.84L450.34 85.84L450.34 138ZM415.84 138L398 138L398 85.84L415.84 85.84L415.84 138Z" />
</svg>